<?xml version="1.0" standalone="no"?><!DOCTYPE svg PUBLIC "-//W3C//DTD SVG 1.1//EN" "http://www.w3.org/Graphics/SVG/1.1/DTD/svg11.dtd"><svg t="1749454656523" class="icon" viewBox="0 0 1024 1024" version="1.1" xmlns="http://www.w3.org/2000/svg" p-id="8679" xmlns:xlink="http://www.w3.org/1999/xlink" width="200" height="200"><path d="M1024 0v1024H0V0h1024z m-42.666667 42.666667H529.066667v12.8h-34.133334V42.666667H42.666667v452.266666h15.36v34.133334H42.666667V981.333333h452.266666v-29.866666h34.133334v29.866666H981.333333V529.066667h-27.306666v-34.133334H981.333333V42.666667zM529.066667 866.133333v42.666667h-34.133334v-42.666667h34.133334z m0-85.333333v42.666667h-34.133334v-42.666667h34.133334z m0-85.333333v42.666666h-34.133334v-42.666666h34.133334z m0-85.333334v42.666667h-34.133334v-42.666667h34.133334z m40.96-115.2v34.133334h-40.96v38.4h-34.133334v-42.666667h32.384l0.042667-29.866667h42.666667z m-426.666667 0v34.133334h-42.666667v-34.133334h42.666667z m85.333333 0v34.133334h-42.666666v-34.133334h42.666666z m85.333334 0v34.133334h-42.666667v-34.133334h42.666667z m85.333333 0v34.133334h-42.666667v-34.133334h42.666667z m85.333333 0v34.133334h-42.666666v-34.133334h42.666666z m170.666667 0v34.133334h-42.666667v-34.133334h42.666667z m85.333333 0v34.133334h-42.666666v-34.133334h42.666666z m85.333334 0v34.133334h-42.666667v-34.133334h42.666667z m85.333333 0v34.133334h-42.666667v-34.133334h42.666667z m-382.293333-55.466666v42.666666h-34.133334v-42.666666h34.133334z m0-85.333334v42.666667h-34.133334v-42.666667h34.133334z m0-85.333333v42.666667h-34.133334v-42.666667h34.133334z m0-85.333333v42.666666h-34.133334v-42.666666h34.133334z m0-85.333334v42.666667h-34.133334v-42.666667h34.133334z" fill="#d81e06" p-id="8680" data-spm-anchor-id="a313x.search_index.0.i3.24aa3a81bz81yU" class=""></path><path d="M362.24 336.981333c14.506667 0 21.76-8.746667 21.76-26.154666C384 274.261333 359.125333 256 309.376 256c-6.912 0-18.474667 0.597333-34.730667 1.792C312.106667 310.570667 341.333333 336.981333 362.24 336.981333z m380.458667 399.829334c102.186667 0 153.301333-5.717333 153.301333-17.194667 0-1.408-3.328-3.072-9.984-4.992l-16.981333-5.034667-53.205334-10.752c-66.005333-14.08-134.698667-58.410667-206.122666-132.906666 14.506667-25.813333 27.093333-52.906667 37.674666-81.322667 31.274667-83.157333 52.053333-129.109333 62.421334-137.941333l17.365333-14.336c4.949333-4.309333 7.381333-9.088 7.381333-14.336 0-6.954667-9.472-16.554667-28.416-28.842667-18.986667-12.330667-33.621333-18.474667-43.946666-18.474667-5.674667 0-12.970667 2.389333-21.802667 7.168-42.368 22.954667-104.32 38.826667-185.813333 47.658667l-25.514667 2.517333c-10.581333 1.194667-15.872 2.858667-15.872 4.992 0 3.84 6.912 9.514667 20.693333 17.066667 13.781333 7.509333 24.234667 11.264 31.402667 11.264 7.125333 0 16.725333-1.706667 28.8-5.034667a713.728 713.728 0 0 1 72.405333-16.469333c26.112-4.522667 43.477333-8.362667 52.053334-11.477333a31.957333 31.957333 0 0 1 11.861333-2.474667c7.381333 0 11.093333 2.474667 11.093333 7.509333a14.506667 14.506667 0 0 1-1.877333 4.650667c-1.706667 3.584-3.541333 13.141333-5.546667 28.672-0.981333 6.698667-6.4 24.576-16.213333 53.76l-25.898667 74.496c-1.194667 3.328-5.76 13.397333-13.653333 30.122667-42.368-58.794667-72.448-96.64-90.325333-113.578667-17.834667-16.981333-36.608-25.472-56.32-25.472-9.856 0-14.677333 2.261333-14.421334 6.826667 0.256 3.114667 2.730667 6.314667 7.381334 9.685333l25.856 18.602667c8.618667 6.229333 31.658667 35.242667 69.12 87.04 7.850667 10.538667 19.669333 26.538667 35.413333 48.042666-56.618667 62.592-122.752 108.8-198.357333 138.666667-18.474667 7.168-27.690667 11.818667-27.690667 13.952 0 5.034667 7.253333 7.552 21.76 7.552 77.610667 0 153.813333-41.088 228.693333-123.264a893.610667 893.610667 0 0 0 83.84 107.861333c14.549333 16 26.24 25.941333 35.114667 29.866667 8.874667 3.968 23.637333 5.973333 44.330667 5.973333zM301.226667 498.901333c13.056 0 19.541333-7.04 19.541333-21.12 0-17.450667-8.917333-31.786667-26.752-43.008-17.877333-11.221333-40.576-16.810667-68.181333-16.810666H213.333333c12.074667 20.992 27.008 39.765333 44.885334 56.234666 17.834667 16.469333 32.213333 24.746667 43.050666 24.746667zM278.698667 768c5.205333 0 11.946667-12.885333 20.352-38.698667a1414.826667 1414.826667 0 0 1 33.237333-91.733333c40.874667-103.168 61.312-161.322667 61.312-174.506667 0-8.533333-1.706667-12.757333-5.162667-12.501333-3.712 0.213333-14.933333 18.261333-33.621333 54.101333-53.461333 102.229333-91.861333 158.976-115.242667 170.197334-7.381333 3.584-11.093333 7.637333-11.093333 12.16 0 10.752 6.698667 26.922667 20.138667 48.554666 13.397333 21.632 23.466667 32.426667 30.08 32.426667z" fill="#2c2c2c" p-id="8681" data-spm-anchor-id="a313x.search_index.0.i2.24aa3a81bz81yU" class="selected"></path></svg>